<?xml version="1.0" encoding="UTF-8" standalone="no"?>
<!DOCTYPE svg PUBLIC "-//W3C//DTD SVG 1.1//EN" "http://www.w3.org/Graphics/SVG/1.1/DTD/svg11.dtd">
<svg width="100%" height="100%" viewBox="0 0 655 204" version="1.1" xmlns="http://www.w3.org/2000/svg" xmlns:xlink="http://www.w3.org/1999/xlink" xml:space="preserve" xmlns:serif="http://www.serif.com/" style="fill-rule:evenodd;clip-rule:evenodd;stroke-linejoin:round;stroke-miterlimit:2;">
    <g transform="matrix(1,0,0,1,-231.592,-325.446)">
        <g transform="matrix(0.219794,0,0,0.219794,231.592,325.446)">
            <path d="M383.533,521.092C289.729,560.971 177.004,542.683 100.562,466.242C0.079,365.758 0.079,202.604 100.563,102.125L101.704,100.992L223.733,223.025C192.158,253.879 172.558,296.85 172.558,344.342C172.558,438.167 249.05,514.342 343.267,514.342C355.446,514.342 367.325,513.067 378.783,510.65C380.321,514.158 381.904,517.642 383.533,521.092ZM649.183,482.513C676.683,394.271 655.517,294.071 585.675,224.229C485.858,124.413 324.029,124.013 223.729,223.021L100.892,100.179C162.979,38.279 248.596,-0 343.079,-0C532.429,-0 686.158,153.729 686.158,343.079C686.158,394.863 674.663,443.979 654.083,488.021C652.463,486.163 650.825,484.325 649.183,482.513ZM509.767,381.996L509.846,381.638L509.788,381.908L509.767,381.996ZM510.017,380.871L509.946,381.187L510.075,380.612L510.017,380.871ZM510.246,379.833L510.175,380.154L510.296,379.579L510.246,379.833ZM510.463,378.792L510.396,379.117L510.513,378.546L510.463,378.792ZM510.675,377.746L510.608,378.079L510.721,377.512L510.675,377.746ZM510.883,376.7L510.817,377.037L510.925,376.475L510.883,376.7ZM511.083,375.65L511.017,375.996L511.121,375.433L511.083,375.65ZM511.275,374.6L511.213,374.95L511.313,374.392L511.275,374.6ZM511.463,373.546L511.4,373.9L511.496,373.346L511.463,373.546ZM511.642,372.492L511.579,372.85L511.675,372.3L511.642,372.492ZM511.817,371.433L511.754,371.8L511.846,371.25L511.817,371.433ZM511.983,370.375L511.925,370.746L512.008,370.2L511.983,370.375ZM512.146,369.312L512.088,369.687L512.167,369.146L512.146,369.312ZM512.3,368.246L512.242,368.629L512.321,368.087L512.3,368.246ZM512.446,367.183L512.392,367.571L512.467,367.029L512.446,367.183ZM512.588,366.112L512.533,366.508L512.604,365.967L512.588,366.112ZM512.721,365.042L512.671,365.442L512.738,364.904L512.721,365.042ZM512.85,363.971L512.8,364.375L512.863,363.842L512.85,363.971ZM512.971,362.896L512.925,363.308L512.983,362.775L512.971,362.896ZM513.083,361.821L513.038,362.237L513.096,361.704L513.083,361.821ZM513.192,360.742L513.15,361.163L513.2,360.633L513.192,360.742ZM513.292,359.663L513.25,360.088L513.3,359.558L513.292,359.663ZM513.392,358.483L513.346,359.012L513.392,358.483ZM513.471,357.496L513.438,357.933L513.479,357.408L513.471,357.496ZM513.55,356.408L513.521,356.85L513.558,356.329L513.55,356.408ZM513.625,355.321L513.596,355.767L513.629,355.25L513.625,355.321ZM513.692,354.229L513.663,354.683L513.696,354.167L513.692,354.229ZM513.75,353.137L513.725,353.596L513.754,353.083L513.75,353.137ZM513.804,352.046L513.783,352.504L513.804,351.996L513.804,352.046ZM513.85,350.95L513.829,351.412L513.85,350.908L513.85,350.95ZM513.888,349.854L513.871,350.312L513.888,349.817L513.888,349.854ZM513.921,348.754L513.908,349.212L513.921,348.725L513.921,348.754ZM513.946,347.654L513.933,348.1L513.946,347.633L513.946,347.654ZM513.963,346.55L513.954,346.975L513.963,346.537L513.963,346.55ZM281.404,185.871C271.017,189.896 261.125,194.908 251.838,200.792C242.554,206.671 233.875,213.421 225.921,220.925C241.829,205.917 260.633,193.925 281.404,185.871ZM392.417,181.508C394.042,181.996 395.663,182.504 397.267,183.042C398.875,183.575 400.467,184.129 402.054,184.708C398.883,183.55 395.671,182.483 392.417,181.508ZM385.379,179.567C385.908,179.7 386.433,179.837 386.963,179.975C387.488,180.112 388.017,180.254 388.546,180.4C387.496,180.112 386.438,179.833 385.379,179.567ZM363.188,175.492C366.796,175.908 370.367,176.442 373.9,177.079C377.433,177.717 380.929,178.467 384.388,179.317C377.475,177.612 370.4,176.329 363.188,175.492ZM346.763,174.379C345.6,174.354 344.433,174.346 343.267,174.346C344.433,174.346 345.6,174.354 346.763,174.379L347.925,174.408L348.979,174.437L349.346,174.454L350.242,174.483C350.963,174.512 351.679,174.546 352.4,174.583L352.55,174.592L352.896,174.612L353.354,174.637L353.7,174.658L354.275,174.696L354.563,174.712L354.688,174.721L354.85,174.729L355.996,174.812L357.142,174.9L357.308,174.912L357.429,174.921L357.717,174.946L358.288,174.996L358.629,175.025L358.858,175.046L359.083,175.067L359.429,175.096L359.996,175.154L360.283,175.179L360.404,175.192C360.838,175.233 361.271,175.279 361.704,175.325L360.404,175.192L359.996,175.154L359.083,175.067L358.629,175.025L357.717,174.946L357.308,174.912L355.996,174.812L354.688,174.721L354.275,174.696L353.354,174.637L352.896,174.612L352.4,174.583L349.346,174.454L347.925,174.408L346.763,174.379Z" style="fill:url(#_Linear1);"/>
        </g>
        <g transform="matrix(0.219794,0,0,0.219794,231.592,325.446)">
            <path d="M485.271,655.354C441.946,675.133 393.792,686.158 343.079,686.158C153.729,686.158 0,532.429 0,343.079C0,248.842 38.079,163.425 99.679,101.392L100.487,102.2C0.079,202.671 0.1,365.779 100.562,466.242C177.012,542.692 289.742,560.704 383.533,520.829C407.875,572.379 442.708,618.317 485.271,655.354ZM509.767,381.996C512.521,369.883 513.975,357.279 513.975,344.342C513.975,250.517 437.483,174.346 343.267,174.346C296.121,174.346 253.413,193.417 222.513,224.229C322.729,124.012 485.458,124.012 585.675,224.229C655.517,294.071 676.683,394.271 649.183,482.508C610.6,439.912 563.158,405.442 509.767,381.996Z" style="fill:url(#_Linear2);"/>
        </g>
        <g transform="matrix(0.219794,0,0,0.219794,231.592,325.446)">
            <path d="M411.696,413.038C565.813,412.792 685.579,535.629 686.154,685.725L686.158,687.5C534.679,687.5 411.696,564.517 411.696,413.037L411.696,413.038Z" style="fill:url(#_Linear3);"/>
        </g>
        <g transform="matrix(0.219794,0,0,0.219794,231.592,325.446)">
            <path d="M426.179,500.95C595.633,423.288 686.167,591.208 686.167,685.888C686.167,686.425 686.167,686.963 686.158,687.5C571.054,686.85 463.396,613.129 426.179,500.95Z" style="fill:url(#_Linear4);"/>
        </g>
    </g>
    <g transform="matrix(1,0,0,1,-353.399,-292.923)">
        <g>
            <g transform="matrix(1,0,0,1,539,401)">
                <path d="M32.42,-24.273L44.966,-24.273L51.273,-16.159L57.477,-8.932L69.17,5.727L55.398,5.727L47.352,-4.159L43.227,-10.023L32.42,-24.273ZM70.227,-34.909C70.227,-27.295 68.79,-20.818 65.915,-15.477C63.04,-10.136 59.131,-6.063 54.188,-3.256C49.244,-0.449 43.693,0.955 37.534,0.955C31.33,0.955 25.761,-0.455 20.83,-3.273C15.898,-6.091 12,-10.17 9.136,-15.511C6.273,-20.852 4.841,-27.318 4.841,-34.909C4.841,-42.523 6.273,-49 9.136,-54.341C12,-59.682 15.898,-63.756 20.83,-66.563C25.761,-69.369 31.33,-70.773 37.534,-70.773C43.693,-70.773 49.244,-69.369 54.188,-66.563C59.131,-63.756 63.04,-59.682 65.915,-54.341C68.79,-49 70.227,-42.523 70.227,-34.909ZM55.261,-34.909C55.261,-39.841 54.528,-44 53.063,-47.386C51.597,-50.773 49.534,-53.341 46.875,-55.091C44.216,-56.841 41.102,-57.716 37.534,-57.716C33.966,-57.716 30.852,-56.841 28.193,-55.091C25.534,-53.341 23.472,-50.773 22.006,-47.386C20.54,-44 19.807,-39.841 19.807,-34.909C19.807,-29.977 20.54,-25.818 22.006,-22.432C23.472,-19.045 25.534,-16.477 28.193,-14.727C30.852,-12.977 33.966,-12.102 37.534,-12.102C41.102,-12.102 44.216,-12.977 46.875,-14.727C49.534,-16.477 51.597,-19.045 53.063,-22.432C54.528,-25.818 55.261,-29.977 55.261,-34.909Z" style="fill:url(#_Linear5);fill-rule:nonzero;"/>
                <path d="M114.511,-22.295L114.511,-52.364L129.034,-52.364L129.034,0L115.091,0L115.091,-9.511L114.545,-9.511C113.364,-6.443 111.403,-3.977 108.665,-2.114C105.926,-0.25 102.591,0.682 98.659,0.682C95.159,0.682 92.08,-0.114 89.42,-1.705C86.761,-3.295 84.688,-5.557 83.199,-8.489C81.71,-11.42 80.955,-14.932 80.932,-19.023L80.932,-52.364L95.455,-52.364L95.455,-21.614C95.477,-18.523 96.307,-16.08 97.943,-14.284C99.58,-12.489 101.773,-11.591 104.523,-11.591C106.273,-11.591 107.909,-11.994 109.432,-12.801C110.955,-13.608 112.188,-14.807 113.131,-16.398C114.074,-17.989 114.534,-19.955 114.511,-22.295Z" style="fill:url(#_Linear6);fill-rule:nonzero;"/>
                <path d="M164.489,1.023C159.102,1.023 154.472,-0.074 150.597,-2.267C146.722,-4.46 143.739,-7.574 141.648,-11.608C139.557,-15.642 138.511,-20.42 138.511,-25.943C138.511,-31.33 139.557,-36.057 141.648,-40.125C143.739,-44.193 146.688,-47.364 150.494,-49.636C154.301,-51.909 158.773,-53.045 163.909,-53.045C167.364,-53.045 170.585,-52.494 173.574,-51.392C176.563,-50.29 179.176,-48.636 181.415,-46.432C183.653,-44.227 185.398,-41.46 186.648,-38.131C187.898,-34.801 188.523,-30.909 188.523,-26.455L188.523,-22.466L144.307,-22.466L144.307,-31.466L174.852,-31.466C174.852,-33.557 174.398,-35.409 173.489,-37.023C172.58,-38.636 171.324,-39.903 169.722,-40.824C168.119,-41.744 166.261,-42.205 164.148,-42.205C161.943,-42.205 159.994,-41.699 158.301,-40.688C156.608,-39.676 155.284,-38.324 154.33,-36.631C153.375,-34.938 152.886,-33.057 152.864,-30.989L152.864,-22.432C152.864,-19.841 153.347,-17.602 154.313,-15.716C155.278,-13.83 156.648,-12.375 158.42,-11.352C160.193,-10.33 162.295,-9.818 164.727,-9.818C166.341,-9.818 167.818,-10.045 169.159,-10.5C170.5,-10.955 171.648,-11.636 172.602,-12.545C173.557,-13.455 174.284,-14.568 174.784,-15.886L188.216,-15C187.534,-11.773 186.142,-8.96 184.04,-6.563C181.938,-4.165 179.233,-2.301 175.926,-0.972C172.619,0.358 168.807,1.023 164.489,1.023Z" style="fill:url(#_Linear7);fill-rule:nonzero;"/>
                <path d="M241.568,-37.432L228.273,-36.614C228.045,-37.75 227.557,-38.778 226.807,-39.699C226.057,-40.619 225.074,-41.358 223.858,-41.915C222.642,-42.472 221.193,-42.75 219.511,-42.75C217.261,-42.75 215.364,-42.278 213.818,-41.335C212.273,-40.392 211.5,-39.136 211.5,-37.568C211.5,-36.318 212,-35.261 213,-34.398C214,-33.534 215.716,-32.841 218.148,-32.318L227.625,-30.409C232.716,-29.364 236.511,-27.682 239.011,-25.364C241.511,-23.045 242.761,-20 242.761,-16.227C242.761,-12.795 241.756,-9.784 239.744,-7.193C237.733,-4.602 234.983,-2.585 231.494,-1.142C228.006,0.301 223.989,1.023 219.443,1.023C212.511,1.023 206.994,-0.426 202.892,-3.324C198.79,-6.222 196.386,-10.17 195.682,-15.17L209.966,-15.92C210.398,-13.807 211.443,-12.199 213.102,-11.097C214.761,-9.994 216.886,-9.443 219.477,-9.443C222.023,-9.443 224.074,-9.938 225.631,-10.926C227.188,-11.915 227.977,-13.193 228,-14.761C227.977,-16.08 227.42,-17.165 226.33,-18.017C225.239,-18.869 223.557,-19.523 221.284,-19.977L212.216,-21.784C207.102,-22.807 203.301,-24.58 200.813,-27.102C198.324,-29.625 197.08,-32.841 197.08,-36.75C197.08,-40.114 197.994,-43.011 199.824,-45.443C201.653,-47.875 204.233,-49.75 207.563,-51.068C210.892,-52.386 214.795,-53.045 219.273,-53.045C225.886,-53.045 231.097,-51.648 234.903,-48.852C238.71,-46.057 240.932,-42.25 241.568,-37.432Z" style="fill:url(#_Linear8);fill-rule:nonzero;"/>
                <path d="M279.784,-52.364L279.784,-41.455L248.25,-41.455L248.25,-52.364L279.784,-52.364ZM255.409,-64.909L269.932,-64.909L269.932,-16.091C269.932,-14.75 270.136,-13.71 270.545,-12.972C270.955,-12.233 271.528,-11.716 272.267,-11.42C273.006,-11.125 273.864,-10.977 274.841,-10.977C275.523,-10.977 276.205,-11.04 276.886,-11.165C277.568,-11.29 278.091,-11.386 278.455,-11.455L280.739,-0.648C280.011,-0.42 278.989,-0.153 277.67,0.153C276.352,0.46 274.75,0.648 272.864,0.716C269.364,0.852 266.301,0.386 263.676,-0.682C261.051,-1.75 259.011,-3.409 257.557,-5.659C256.102,-7.909 255.386,-10.75 255.409,-14.182L255.409,-64.909Z" style="fill:url(#_Linear9);fill-rule:nonzero;"/>
            </g>
            <g transform="matrix(1,0,0,1,823.523,401)">
                <path d="M6.068,0L6.068,-69.818L33.614,-69.818C38.909,-69.818 43.42,-68.813 47.148,-66.801C50.875,-64.79 53.722,-62.006 55.688,-58.449C57.653,-54.892 58.636,-50.795 58.636,-46.159C58.636,-41.523 57.636,-37.432 55.636,-33.886C53.636,-30.341 50.744,-27.58 46.96,-25.602C43.176,-23.625 38.602,-22.636 33.239,-22.636L15.682,-22.636L15.682,-34.466L30.852,-34.466C33.693,-34.466 36.04,-34.96 37.892,-35.949C39.744,-36.938 41.131,-38.313 42.051,-40.074C42.972,-41.835 43.432,-43.864 43.432,-46.159C43.432,-48.477 42.972,-50.506 42.051,-52.244C41.131,-53.983 39.739,-55.335 37.875,-56.301C36.011,-57.267 33.648,-57.75 30.784,-57.75L20.83,-57.75L20.83,0L6.068,0Z" style="fill:url(#_Linear10);fill-rule:nonzero;"/>
                <path d="M93,0L68.25,0L68.25,-69.818L93.205,-69.818C100.227,-69.818 106.273,-68.426 111.341,-65.642C116.409,-62.858 120.313,-58.864 123.051,-53.659C125.79,-48.455 127.159,-42.227 127.159,-34.977C127.159,-27.705 125.79,-21.455 123.051,-16.227C120.313,-11 116.392,-6.989 111.29,-4.193C106.188,-1.398 100.091,0 93,0ZM83.011,-12.648L92.386,-12.648C96.75,-12.648 100.426,-13.426 103.415,-14.983C106.403,-16.54 108.653,-18.96 110.165,-22.244C111.676,-25.528 112.432,-29.773 112.432,-34.977C112.432,-40.136 111.676,-44.352 110.165,-47.625C108.653,-50.898 106.409,-53.307 103.432,-54.852C100.455,-56.398 96.784,-57.17 92.42,-57.17L83.011,-57.17L83.011,-12.648Z" style="fill:url(#_Linear11);fill-rule:nonzero;"/>
                <path d="M138.068,0L138.068,-69.818L184.295,-69.818L184.295,-57.648L152.83,-57.648L152.83,-41.011L181.227,-41.011L181.227,-28.841L152.83,-28.841L152.83,0L138.068,0Z" style="fill:url(#_Linear12);fill-rule:nonzero;"/>
            </g>
        </g>
    </g>
    <g transform="matrix(1,0,0,1,-471.842,-437.772)">
        <g>
            <g transform="matrix(1,0,0,1,661,599)">
                <g transform="matrix(32,0,0,32,0,0)">
                    <path d="M0.063,-0.727L0.253,-0.727L0.453,-0.239L0.462,-0.239L0.662,-0.727L0.852,-0.727L0.852,-0L0.702,-0L0.702,-0.473L0.696,-0.473L0.508,-0.004L0.407,-0.004L0.218,-0.475L0.212,-0.475L0.212,-0L0.063,-0L0.063,-0.727Z" style="fill:rgb(153,153,153);fill-rule:nonzero;"/>
                </g>
                <g transform="matrix(32,0,0,32,29.2727,0)">
                    <path d="M0.307,0.011C0.252,0.011 0.204,-0.001 0.164,-0.025C0.124,-0.048 0.093,-0.081 0.071,-0.123C0.049,-0.166 0.038,-0.215 0.038,-0.271C0.038,-0.327 0.049,-0.376 0.071,-0.419C0.093,-0.461 0.124,-0.494 0.164,-0.517C0.204,-0.541 0.252,-0.553 0.307,-0.553C0.362,-0.553 0.41,-0.541 0.45,-0.517C0.49,-0.494 0.521,-0.461 0.543,-0.419C0.564,-0.376 0.575,-0.327 0.575,-0.271C0.575,-0.215 0.564,-0.166 0.543,-0.123C0.521,-0.081 0.49,-0.048 0.45,-0.025C0.41,-0.001 0.362,0.011 0.307,0.011ZM0.308,-0.107C0.333,-0.107 0.354,-0.114 0.37,-0.128C0.387,-0.142 0.4,-0.162 0.409,-0.187C0.417,-0.212 0.422,-0.24 0.422,-0.272C0.422,-0.303 0.417,-0.332 0.409,-0.357C0.4,-0.381 0.387,-0.401 0.37,-0.415C0.354,-0.43 0.333,-0.437 0.308,-0.437C0.282,-0.437 0.261,-0.43 0.244,-0.415C0.227,-0.401 0.214,-0.381 0.205,-0.357C0.196,-0.332 0.192,-0.303 0.192,-0.272C0.192,-0.24 0.196,-0.212 0.205,-0.187C0.214,-0.162 0.227,-0.142 0.244,-0.128C0.261,-0.114 0.282,-0.107 0.308,-0.107Z" style="fill:rgb(153,153,153);fill-rule:nonzero;"/>
                </g>
                <g transform="matrix(32,0,0,32,48.9091,0)">
                    <path d="M0.261,0.009C0.22,0.009 0.182,-0.002 0.149,-0.023C0.115,-0.045 0.089,-0.076 0.069,-0.118C0.05,-0.16 0.04,-0.211 0.04,-0.272C0.04,-0.335 0.05,-0.387 0.07,-0.428C0.09,-0.47 0.117,-0.501 0.151,-0.521C0.184,-0.542 0.221,-0.553 0.261,-0.553C0.292,-0.553 0.317,-0.547 0.338,-0.537C0.358,-0.527 0.375,-0.514 0.387,-0.499C0.4,-0.483 0.41,-0.469 0.416,-0.454L0.421,-0.454L0.421,-0.727L0.572,-0.727L0.572,-0L0.423,-0L0.423,-0.087L0.416,-0.087C0.409,-0.072 0.399,-0.057 0.386,-0.042C0.373,-0.028 0.357,-0.015 0.336,-0.006C0.316,0.004 0.291,0.009 0.261,0.009ZM0.309,-0.112C0.334,-0.112 0.354,-0.118 0.371,-0.132C0.388,-0.145 0.401,-0.164 0.41,-0.188C0.419,-0.212 0.424,-0.24 0.424,-0.273C0.424,-0.305 0.42,-0.333 0.411,-0.357C0.402,-0.381 0.388,-0.4 0.371,-0.413C0.354,-0.426 0.334,-0.432 0.309,-0.432C0.284,-0.432 0.263,-0.425 0.246,-0.412C0.229,-0.398 0.217,-0.38 0.208,-0.356C0.199,-0.332 0.195,-0.304 0.195,-0.273C0.195,-0.241 0.199,-0.213 0.208,-0.189C0.217,-0.164 0.23,-0.146 0.247,-0.132C0.264,-0.118 0.284,-0.112 0.309,-0.112Z" style="fill:rgb(153,153,153);fill-rule:nonzero;"/>
                </g>
                <g transform="matrix(32,0,0,32,69.2386,0)">
                    <path d="M0.309,0.011C0.253,0.011 0.205,-0.001 0.164,-0.024C0.124,-0.046 0.093,-0.079 0.071,-0.121C0.049,-0.163 0.038,-0.213 0.038,-0.27C0.038,-0.326 0.049,-0.376 0.071,-0.418C0.093,-0.46 0.124,-0.493 0.163,-0.517C0.203,-0.541 0.249,-0.553 0.303,-0.553C0.339,-0.553 0.372,-0.547 0.404,-0.535C0.435,-0.524 0.462,-0.507 0.485,-0.484C0.509,-0.461 0.527,-0.432 0.54,-0.397C0.553,-0.363 0.559,-0.322 0.559,-0.276L0.559,-0.234L0.099,-0.234L0.099,-0.328L0.417,-0.328C0.417,-0.35 0.412,-0.369 0.403,-0.386C0.393,-0.402 0.38,-0.416 0.363,-0.425C0.347,-0.435 0.327,-0.44 0.305,-0.44C0.282,-0.44 0.262,-0.434 0.244,-0.424C0.227,-0.413 0.213,-0.399 0.203,-0.382C0.193,-0.364 0.188,-0.344 0.188,-0.323L0.188,-0.234C0.188,-0.207 0.193,-0.183 0.203,-0.164C0.213,-0.144 0.227,-0.129 0.246,-0.118C0.264,-0.108 0.286,-0.102 0.311,-0.102C0.328,-0.102 0.344,-0.105 0.358,-0.109C0.372,-0.114 0.384,-0.121 0.393,-0.131C0.403,-0.14 0.411,-0.152 0.416,-0.165L0.556,-0.156C0.549,-0.123 0.535,-0.093 0.513,-0.068C0.491,-0.043 0.463,-0.024 0.428,-0.01C0.394,0.004 0.354,0.011 0.309,0.011Z" style="fill:rgb(153,153,153);fill-rule:nonzero;"/>
                </g>
                <g transform="matrix(32,0,0,32,88.3636,0)">
                    <path d="M0.06,-0L0.06,-0.545L0.207,-0.545L0.207,-0.45L0.213,-0.45C0.223,-0.484 0.239,-0.51 0.263,-0.527C0.286,-0.545 0.313,-0.553 0.344,-0.553C0.351,-0.553 0.359,-0.553 0.368,-0.552C0.377,-0.551 0.385,-0.55 0.391,-0.548L0.391,-0.414C0.384,-0.416 0.374,-0.418 0.362,-0.419C0.349,-0.421 0.338,-0.422 0.327,-0.422C0.305,-0.422 0.285,-0.417 0.268,-0.407C0.251,-0.398 0.237,-0.385 0.227,-0.368C0.217,-0.35 0.212,-0.331 0.212,-0.309L0.212,-0L0.06,-0Z" style="fill:rgb(153,153,153);fill-rule:nonzero;"/>
                </g>
                <g transform="matrix(32,0,0,32,101.443,0)">
                    <path d="M0.212,-0.315L0.212,-0L0.06,-0L0.06,-0.545L0.205,-0.545L0.205,-0.449L0.211,-0.449C0.223,-0.481 0.243,-0.506 0.272,-0.525C0.3,-0.543 0.335,-0.553 0.375,-0.553C0.413,-0.553 0.446,-0.544 0.474,-0.528C0.502,-0.511 0.524,-0.488 0.54,-0.457C0.555,-0.426 0.563,-0.39 0.563,-0.347L0.563,-0L0.412,-0L0.412,-0.32C0.412,-0.354 0.404,-0.38 0.386,-0.399C0.369,-0.417 0.345,-0.427 0.315,-0.427C0.295,-0.427 0.277,-0.422 0.261,-0.414C0.246,-0.405 0.234,-0.392 0.225,-0.376C0.216,-0.359 0.212,-0.339 0.212,-0.315Z" style="fill:rgb(153,153,153);fill-rule:nonzero;"/>
                </g>
                <g transform="matrix(32,0,0,32,128.761,0)">
                    <path d="M0.149,0.009C0.125,0.009 0.105,0.001 0.089,-0.016C0.072,-0.032 0.064,-0.053 0.064,-0.076C0.064,-0.099 0.072,-0.119 0.089,-0.136C0.105,-0.152 0.125,-0.161 0.149,-0.161C0.172,-0.161 0.191,-0.152 0.208,-0.136C0.225,-0.119 0.234,-0.099 0.234,-0.076C0.234,-0.06 0.23,-0.046 0.222,-0.033C0.214,-0.02 0.204,-0.01 0.191,-0.002C0.178,0.005 0.164,0.009 0.149,0.009Z" style="fill:rgb(153,153,153);fill-rule:nonzero;"/>
                </g>
                <g transform="matrix(32,0,0,32,138.284,0)">
                    <path d="M0.672,-0.727L0.672,-0L0.539,-0L0.222,-0.458L0.217,-0.458L0.217,-0L0.063,-0L0.063,-0.727L0.198,-0.727L0.512,-0.27L0.518,-0.27L0.518,-0.727L0.672,-0.727Z" style="fill:rgb(153,153,153);fill-rule:nonzero;"/>
                </g>
                <g transform="matrix(32,0,0,32,161.807,0)">
                    <path d="M0.063,-0L0.063,-0.727L0.553,-0.727L0.553,-0.6L0.217,-0.6L0.217,-0.427L0.528,-0.427L0.528,-0.3L0.217,-0.3L0.217,-0.127L0.555,-0.127L0.555,-0L0.063,-0Z" style="fill:rgb(153,153,153);fill-rule:nonzero;"/>
                </g>
                <g transform="matrix(32,0,0,32,181.409,0)">
                    <path d="M0.036,-0.6L0.036,-0.727L0.633,-0.727L0.633,-0.6L0.41,-0.6L0.41,-0L0.258,-0L0.258,-0.6L0.036,-0.6Z" style="fill:rgb(153,153,153);fill-rule:nonzero;"/>
                </g>
                <g transform="matrix(32,0,0,32,210.216,0)">
                    <rect x="0.06" y="-0.727" width="0.151" height="0.727" style="fill:rgb(153,153,153);"/>
                </g>
                <g transform="matrix(32,0,0,32,218.92,0)">
                    <path d="M0.06,-0L0.06,-0.545L0.212,-0.545L0.212,-0L0.06,-0ZM0.136,-0.616C0.114,-0.616 0.095,-0.623 0.079,-0.638C0.063,-0.653 0.055,-0.671 0.055,-0.692C0.055,-0.713 0.063,-0.731 0.079,-0.746C0.095,-0.761 0.114,-0.769 0.136,-0.769C0.159,-0.769 0.178,-0.761 0.194,-0.746C0.21,-0.731 0.218,-0.713 0.218,-0.692C0.218,-0.671 0.21,-0.653 0.194,-0.638C0.178,-0.623 0.159,-0.616 0.136,-0.616Z" style="fill:rgb(153,153,153);fill-rule:nonzero;"/>
                </g>
                <g transform="matrix(32,0,0,32,227.625,0)">
                    <path d="M0.063,-0L0.063,-0.727L0.214,-0.727L0.214,-0.454L0.219,-0.454C0.226,-0.469 0.235,-0.483 0.248,-0.499C0.261,-0.514 0.277,-0.527 0.298,-0.537C0.318,-0.547 0.344,-0.553 0.374,-0.553C0.414,-0.553 0.451,-0.542 0.484,-0.521C0.518,-0.501 0.545,-0.47 0.565,-0.428C0.585,-0.387 0.595,-0.335 0.595,-0.272C0.595,-0.211 0.585,-0.16 0.566,-0.118C0.546,-0.076 0.52,-0.045 0.486,-0.023C0.453,-0.002 0.415,0.009 0.374,0.009C0.345,0.009 0.32,0.004 0.299,-0.006C0.279,-0.015 0.262,-0.028 0.249,-0.042C0.236,-0.057 0.226,-0.072 0.219,-0.087L0.212,-0.087L0.212,-0L0.063,-0ZM0.211,-0.273C0.211,-0.24 0.216,-0.212 0.225,-0.188C0.234,-0.164 0.247,-0.145 0.264,-0.132C0.281,-0.118 0.302,-0.112 0.326,-0.112C0.351,-0.112 0.371,-0.118 0.388,-0.132C0.406,-0.146 0.419,-0.164 0.427,-0.189C0.436,-0.213 0.441,-0.241 0.441,-0.273C0.441,-0.304 0.436,-0.332 0.428,-0.356C0.419,-0.38 0.406,-0.398 0.389,-0.412C0.372,-0.425 0.351,-0.432 0.326,-0.432C0.301,-0.432 0.281,-0.426 0.264,-0.413C0.247,-0.4 0.234,-0.381 0.225,-0.357C0.216,-0.333 0.211,-0.305 0.211,-0.273Z" style="fill:rgb(153,153,153);fill-rule:nonzero;"/>
                </g>
                <g transform="matrix(32,0,0,32,247.955,0)">
                    <path d="M0.06,-0L0.06,-0.545L0.207,-0.545L0.207,-0.45L0.213,-0.45C0.223,-0.484 0.239,-0.51 0.263,-0.527C0.286,-0.545 0.313,-0.553 0.344,-0.553C0.351,-0.553 0.359,-0.553 0.368,-0.552C0.377,-0.551 0.385,-0.55 0.391,-0.548L0.391,-0.414C0.384,-0.416 0.374,-0.418 0.362,-0.419C0.349,-0.421 0.338,-0.422 0.327,-0.422C0.305,-0.422 0.285,-0.417 0.268,-0.407C0.251,-0.398 0.237,-0.385 0.227,-0.368C0.217,-0.35 0.212,-0.331 0.212,-0.309L0.212,-0L0.06,-0Z" style="fill:rgb(153,153,153);fill-rule:nonzero;"/>
                </g>
            </g>
            <g transform="matrix(1,0,0,1,921.545,599)">
                <g transform="matrix(32,0,0,32,0,0)">
                    <path d="M0.216,0.01C0.181,0.01 0.15,0.004 0.123,-0.008C0.096,-0.02 0.074,-0.038 0.058,-0.062C0.043,-0.086 0.035,-0.116 0.035,-0.152C0.035,-0.183 0.04,-0.208 0.051,-0.229C0.063,-0.249 0.078,-0.266 0.097,-0.278C0.116,-0.291 0.138,-0.3 0.162,-0.307C0.187,-0.313 0.213,-0.318 0.24,-0.32C0.271,-0.324 0.297,-0.327 0.316,-0.33C0.336,-0.333 0.35,-0.337 0.359,-0.343C0.367,-0.349 0.372,-0.358 0.372,-0.369L0.372,-0.371C0.372,-0.394 0.365,-0.411 0.351,-0.424C0.337,-0.436 0.317,-0.442 0.291,-0.442C0.264,-0.442 0.242,-0.436 0.226,-0.424C0.21,-0.412 0.199,-0.397 0.194,-0.379L0.054,-0.391C0.061,-0.424 0.075,-0.452 0.096,-0.477C0.117,-0.501 0.144,-0.52 0.177,-0.533C0.21,-0.546 0.248,-0.553 0.292,-0.553C0.322,-0.553 0.351,-0.549 0.379,-0.542C0.407,-0.535 0.431,-0.524 0.453,-0.509C0.475,-0.494 0.492,-0.475 0.504,-0.452C0.517,-0.428 0.523,-0.4 0.523,-0.368L0.523,-0L0.38,-0L0.38,-0.076L0.375,-0.076C0.367,-0.059 0.355,-0.044 0.34,-0.031C0.326,-0.018 0.308,-0.008 0.287,-0.001C0.267,0.007 0.243,0.01 0.216,0.01ZM0.259,-0.094C0.281,-0.094 0.301,-0.099 0.318,-0.107C0.335,-0.116 0.349,-0.128 0.358,-0.143C0.368,-0.159 0.373,-0.176 0.373,-0.195L0.373,-0.253C0.368,-0.25 0.362,-0.247 0.354,-0.244C0.345,-0.242 0.336,-0.24 0.326,-0.238C0.316,-0.236 0.306,-0.234 0.295,-0.232C0.285,-0.231 0.276,-0.23 0.268,-0.228C0.25,-0.226 0.234,-0.222 0.221,-0.216C0.208,-0.21 0.198,-0.203 0.19,-0.193C0.183,-0.183 0.179,-0.172 0.179,-0.157C0.179,-0.137 0.187,-0.121 0.202,-0.11C0.217,-0.099 0.236,-0.094 0.259,-0.094Z" style="fill:rgb(153,153,153);fill-rule:nonzero;"/>
                </g>
                <g transform="matrix(32,0,0,32,18.5682,0)">
                    <path d="M0.06,-0L0.06,-0.545L0.207,-0.545L0.207,-0.45L0.213,-0.45C0.223,-0.484 0.239,-0.51 0.263,-0.527C0.286,-0.545 0.313,-0.553 0.344,-0.553C0.351,-0.553 0.359,-0.553 0.368,-0.552C0.377,-0.551 0.385,-0.55 0.391,-0.548L0.391,-0.414C0.384,-0.416 0.374,-0.418 0.362,-0.419C0.349,-0.421 0.338,-0.422 0.327,-0.422C0.305,-0.422 0.285,-0.417 0.268,-0.407C0.251,-0.398 0.237,-0.385 0.227,-0.368C0.217,-0.35 0.212,-0.331 0.212,-0.309L0.212,-0L0.06,-0Z" style="fill:rgb(153,153,153);fill-rule:nonzero;"/>
                </g>
                <g transform="matrix(32,0,0,32,32.1932,0)">
                    <path d="M0.154,0.205C0.135,0.205 0.117,0.203 0.1,0.2C0.083,0.197 0.069,0.193 0.059,0.189L0.093,0.076C0.11,0.081 0.126,0.084 0.141,0.085C0.155,0.085 0.168,0.082 0.178,0.075C0.189,0.068 0.197,0.056 0.204,0.039L0.213,0.016L0.017,-0.545L0.176,-0.545L0.289,-0.145L0.295,-0.145L0.409,-0.545L0.569,-0.545L0.357,0.059C0.347,0.088 0.333,0.114 0.316,0.136C0.298,0.158 0.276,0.175 0.25,0.187C0.223,0.199 0.191,0.205 0.154,0.205Z" style="fill:rgb(153,153,153);fill-rule:nonzero;"/>
                </g>
                <g transform="matrix(32,0,0,32,58.3636,0)">
                    <path d="M0.354,-0.545L0.354,-0.432L0.017,-0.432L0.017,-0.545L0.354,-0.545ZM0.094,-0L0.094,-0.585C0.094,-0.624 0.102,-0.657 0.117,-0.683C0.133,-0.709 0.154,-0.729 0.181,-0.742C0.208,-0.755 0.239,-0.761 0.273,-0.761C0.296,-0.761 0.318,-0.76 0.337,-0.756C0.356,-0.752 0.371,-0.749 0.38,-0.746L0.353,-0.633C0.347,-0.635 0.34,-0.636 0.331,-0.638C0.323,-0.64 0.314,-0.641 0.305,-0.641C0.282,-0.641 0.267,-0.635 0.258,-0.625C0.249,-0.615 0.245,-0.6 0.245,-0.582L0.245,-0L0.094,-0Z" style="fill:rgb(153,153,153);fill-rule:nonzero;"/>
                </g>
            </g>
            <g transform="matrix(1,0,0,1,991.636,599)">
                <g transform="matrix(32,0,0,32,0,0)">
                    <path d="M0.307,0.011C0.252,0.011 0.204,-0.001 0.164,-0.025C0.124,-0.048 0.093,-0.081 0.071,-0.123C0.049,-0.166 0.038,-0.215 0.038,-0.271C0.038,-0.327 0.049,-0.376 0.071,-0.419C0.093,-0.461 0.124,-0.494 0.164,-0.517C0.204,-0.541 0.252,-0.553 0.307,-0.553C0.362,-0.553 0.41,-0.541 0.45,-0.517C0.49,-0.494 0.521,-0.461 0.543,-0.419C0.564,-0.376 0.575,-0.327 0.575,-0.271C0.575,-0.215 0.564,-0.166 0.543,-0.123C0.521,-0.081 0.49,-0.048 0.45,-0.025C0.41,-0.001 0.362,0.011 0.307,0.011ZM0.308,-0.107C0.333,-0.107 0.354,-0.114 0.37,-0.128C0.387,-0.142 0.4,-0.162 0.409,-0.187C0.417,-0.212 0.422,-0.24 0.422,-0.272C0.422,-0.303 0.417,-0.332 0.409,-0.357C0.4,-0.381 0.387,-0.401 0.37,-0.415C0.354,-0.43 0.333,-0.437 0.308,-0.437C0.282,-0.437 0.261,-0.43 0.244,-0.415C0.227,-0.401 0.214,-0.381 0.205,-0.357C0.196,-0.332 0.192,-0.303 0.192,-0.272C0.192,-0.24 0.196,-0.212 0.205,-0.187C0.214,-0.162 0.227,-0.142 0.244,-0.128C0.261,-0.114 0.282,-0.107 0.308,-0.107Z" style="fill:rgb(153,153,153);fill-rule:nonzero;"/>
                </g>
                <g transform="matrix(32,0,0,32,19.6364,0)">
                    <path d="M0.06,-0L0.06,-0.545L0.207,-0.545L0.207,-0.45L0.213,-0.45C0.223,-0.484 0.239,-0.51 0.263,-0.527C0.286,-0.545 0.313,-0.553 0.344,-0.553C0.351,-0.553 0.359,-0.553 0.368,-0.552C0.377,-0.551 0.385,-0.55 0.391,-0.548L0.391,-0.414C0.384,-0.416 0.374,-0.418 0.362,-0.419C0.349,-0.421 0.338,-0.422 0.327,-0.422C0.305,-0.422 0.285,-0.417 0.268,-0.407C0.251,-0.398 0.237,-0.385 0.227,-0.368C0.217,-0.35 0.212,-0.331 0.212,-0.309L0.212,-0L0.06,-0Z" style="fill:rgb(153,153,153);fill-rule:nonzero;"/>
                </g>
            </g>
        </g>
        <g>
            <g transform="matrix(1,0,0,1,661,634.2)">
                <g transform="matrix(32,0,0,32,0,0)">
                    <path d="M0.261,0.009C0.22,0.009 0.182,-0.002 0.149,-0.023C0.115,-0.045 0.089,-0.076 0.069,-0.118C0.05,-0.16 0.04,-0.211 0.04,-0.272C0.04,-0.335 0.05,-0.387 0.07,-0.428C0.09,-0.47 0.117,-0.501 0.151,-0.521C0.184,-0.542 0.221,-0.553 0.261,-0.553C0.292,-0.553 0.317,-0.547 0.338,-0.537C0.358,-0.527 0.375,-0.514 0.387,-0.499C0.4,-0.483 0.41,-0.469 0.416,-0.454L0.421,-0.454L0.421,-0.727L0.572,-0.727L0.572,-0L0.423,-0L0.423,-0.087L0.416,-0.087C0.409,-0.072 0.399,-0.057 0.386,-0.042C0.373,-0.028 0.357,-0.015 0.336,-0.006C0.316,0.004 0.291,0.009 0.261,0.009ZM0.309,-0.112C0.334,-0.112 0.354,-0.118 0.371,-0.132C0.388,-0.145 0.401,-0.164 0.41,-0.188C0.419,-0.212 0.424,-0.24 0.424,-0.273C0.424,-0.305 0.42,-0.333 0.411,-0.357C0.402,-0.381 0.388,-0.4 0.371,-0.413C0.354,-0.426 0.334,-0.432 0.309,-0.432C0.284,-0.432 0.263,-0.425 0.246,-0.412C0.229,-0.398 0.217,-0.38 0.208,-0.356C0.199,-0.332 0.195,-0.304 0.195,-0.273C0.195,-0.241 0.199,-0.213 0.208,-0.189C0.217,-0.164 0.23,-0.146 0.247,-0.132C0.264,-0.118 0.284,-0.112 0.309,-0.112Z" style="fill:rgb(153,153,153);fill-rule:nonzero;"/>
                </g>
                <g transform="matrix(32,0,0,32,20.3295,0)">
                    <path d="M0.307,0.011C0.252,0.011 0.204,-0.001 0.164,-0.025C0.124,-0.048 0.093,-0.081 0.071,-0.123C0.049,-0.166 0.038,-0.215 0.038,-0.271C0.038,-0.327 0.049,-0.376 0.071,-0.419C0.093,-0.461 0.124,-0.494 0.164,-0.517C0.204,-0.541 0.252,-0.553 0.307,-0.553C0.362,-0.553 0.41,-0.541 0.45,-0.517C0.49,-0.494 0.521,-0.461 0.543,-0.419C0.564,-0.376 0.575,-0.327 0.575,-0.271C0.575,-0.215 0.564,-0.166 0.543,-0.123C0.521,-0.081 0.49,-0.048 0.45,-0.025C0.41,-0.001 0.362,0.011 0.307,0.011ZM0.308,-0.107C0.333,-0.107 0.354,-0.114 0.37,-0.128C0.387,-0.142 0.4,-0.162 0.409,-0.187C0.417,-0.212 0.422,-0.24 0.422,-0.272C0.422,-0.303 0.417,-0.332 0.409,-0.357C0.4,-0.381 0.387,-0.401 0.37,-0.415C0.354,-0.43 0.333,-0.437 0.308,-0.437C0.282,-0.437 0.261,-0.43 0.244,-0.415C0.227,-0.401 0.214,-0.381 0.205,-0.357C0.196,-0.332 0.192,-0.303 0.192,-0.272C0.192,-0.24 0.196,-0.212 0.205,-0.187C0.214,-0.162 0.227,-0.142 0.244,-0.128C0.261,-0.114 0.282,-0.107 0.308,-0.107Z" style="fill:rgb(153,153,153);fill-rule:nonzero;"/>
                </g>
                <g transform="matrix(32,0,0,32,39.9659,0)">
                    <path d="M0.307,0.011C0.251,0.011 0.203,-0.001 0.163,-0.025C0.123,-0.049 0.092,-0.082 0.07,-0.124C0.049,-0.167 0.038,-0.215 0.038,-0.271C0.038,-0.326 0.049,-0.376 0.071,-0.418C0.093,-0.46 0.123,-0.493 0.163,-0.517C0.203,-0.541 0.251,-0.553 0.306,-0.553C0.354,-0.553 0.395,-0.544 0.431,-0.527C0.467,-0.509 0.495,-0.485 0.516,-0.454C0.537,-0.423 0.548,-0.386 0.55,-0.344L0.408,-0.344C0.404,-0.371 0.393,-0.393 0.376,-0.41C0.359,-0.426 0.336,-0.435 0.309,-0.435C0.285,-0.435 0.265,-0.428 0.247,-0.416C0.23,-0.403 0.216,-0.385 0.207,-0.36C0.197,-0.336 0.192,-0.307 0.192,-0.273C0.192,-0.238 0.197,-0.208 0.206,-0.184C0.216,-0.16 0.23,-0.141 0.247,-0.128C0.265,-0.115 0.285,-0.109 0.309,-0.109C0.326,-0.109 0.341,-0.113 0.355,-0.12C0.369,-0.127 0.381,-0.137 0.39,-0.151C0.399,-0.164 0.405,-0.181 0.408,-0.2L0.55,-0.2C0.548,-0.158 0.537,-0.122 0.517,-0.09C0.496,-0.058 0.468,-0.034 0.433,-0.016C0.397,0.002 0.355,0.011 0.307,0.011Z" style="fill:rgb(153,153,153);fill-rule:nonzero;"/>
                </g>
                <g transform="matrix(32,0,0,32,58.7614,0)">
                    <path d="M0.41,-0.232L0.41,-0.545L0.561,-0.545L0.561,-0L0.416,-0L0.416,-0.099L0.411,-0.099C0.398,-0.067 0.378,-0.041 0.349,-0.022C0.321,-0.003 0.286,0.007 0.245,0.007C0.209,0.007 0.176,-0.001 0.149,-0.018C0.121,-0.034 0.099,-0.058 0.084,-0.088C0.068,-0.119 0.061,-0.156 0.06,-0.198L0.06,-0.545L0.212,-0.545L0.212,-0.225C0.212,-0.193 0.221,-0.167 0.238,-0.149C0.255,-0.13 0.277,-0.121 0.306,-0.121C0.324,-0.121 0.341,-0.125 0.357,-0.133C0.373,-0.142 0.386,-0.154 0.396,-0.171C0.406,-0.187 0.41,-0.208 0.41,-0.232Z" style="fill:rgb(153,153,153);fill-rule:nonzero;"/>
                </g>
                <g transform="matrix(32,0,0,32,78.6591,0)">
                    <path d="M0.06,-0L0.06,-0.545L0.205,-0.545L0.205,-0.449L0.211,-0.449C0.222,-0.481 0.241,-0.506 0.268,-0.525C0.294,-0.543 0.326,-0.553 0.363,-0.553C0.4,-0.553 0.432,-0.543 0.458,-0.525C0.485,-0.506 0.502,-0.481 0.511,-0.449L0.517,-0.449C0.528,-0.48 0.548,-0.506 0.577,-0.524C0.606,-0.543 0.641,-0.553 0.681,-0.553C0.732,-0.553 0.773,-0.536 0.805,-0.504C0.837,-0.472 0.853,-0.426 0.853,-0.367L0.853,-0L0.702,-0L0.702,-0.337C0.702,-0.367 0.694,-0.39 0.678,-0.405C0.662,-0.42 0.642,-0.428 0.618,-0.428C0.59,-0.428 0.569,-0.419 0.553,-0.402C0.538,-0.384 0.53,-0.362 0.53,-0.333L0.53,-0L0.384,-0L0.384,-0.34C0.384,-0.367 0.376,-0.388 0.361,-0.404C0.345,-0.42 0.325,-0.428 0.3,-0.428C0.284,-0.428 0.269,-0.424 0.255,-0.415C0.242,-0.407 0.231,-0.395 0.223,-0.38C0.216,-0.365 0.212,-0.348 0.212,-0.327L0.212,-0L0.06,-0Z" style="fill:rgb(153,153,153);fill-rule:nonzero;"/>
                </g>
                <g transform="matrix(32,0,0,32,107.841,0)">
                    <path d="M0.309,0.011C0.253,0.011 0.205,-0.001 0.164,-0.024C0.124,-0.046 0.093,-0.079 0.071,-0.121C0.049,-0.163 0.038,-0.213 0.038,-0.27C0.038,-0.326 0.049,-0.376 0.071,-0.418C0.093,-0.46 0.124,-0.493 0.163,-0.517C0.203,-0.541 0.249,-0.553 0.303,-0.553C0.339,-0.553 0.372,-0.547 0.404,-0.535C0.435,-0.524 0.462,-0.507 0.485,-0.484C0.509,-0.461 0.527,-0.432 0.54,-0.397C0.553,-0.363 0.559,-0.322 0.559,-0.276L0.559,-0.234L0.099,-0.234L0.099,-0.328L0.417,-0.328C0.417,-0.35 0.412,-0.369 0.403,-0.386C0.393,-0.402 0.38,-0.416 0.363,-0.425C0.347,-0.435 0.327,-0.44 0.305,-0.44C0.282,-0.44 0.262,-0.434 0.244,-0.424C0.227,-0.413 0.213,-0.399 0.203,-0.382C0.193,-0.364 0.188,-0.344 0.188,-0.323L0.188,-0.234C0.188,-0.207 0.193,-0.183 0.203,-0.164C0.213,-0.144 0.227,-0.129 0.246,-0.118C0.264,-0.108 0.286,-0.102 0.311,-0.102C0.328,-0.102 0.344,-0.105 0.358,-0.109C0.372,-0.114 0.384,-0.121 0.393,-0.131C0.403,-0.14 0.411,-0.152 0.416,-0.165L0.556,-0.156C0.549,-0.123 0.535,-0.093 0.513,-0.068C0.491,-0.043 0.463,-0.024 0.428,-0.01C0.394,0.004 0.354,0.011 0.309,0.011Z" style="fill:rgb(153,153,153);fill-rule:nonzero;"/>
                </g>
                <g transform="matrix(32,0,0,32,126.966,0)">
                    <path d="M0.212,-0.315L0.212,-0L0.06,-0L0.06,-0.545L0.205,-0.545L0.205,-0.449L0.211,-0.449C0.223,-0.481 0.243,-0.506 0.272,-0.525C0.3,-0.543 0.335,-0.553 0.375,-0.553C0.413,-0.553 0.446,-0.544 0.474,-0.528C0.502,-0.511 0.524,-0.488 0.54,-0.457C0.555,-0.426 0.563,-0.39 0.563,-0.347L0.563,-0L0.412,-0L0.412,-0.32C0.412,-0.354 0.404,-0.38 0.386,-0.399C0.369,-0.417 0.345,-0.427 0.315,-0.427C0.295,-0.427 0.277,-0.422 0.261,-0.414C0.246,-0.405 0.234,-0.392 0.225,-0.376C0.216,-0.359 0.212,-0.339 0.212,-0.315Z" style="fill:rgb(153,153,153);fill-rule:nonzero;"/>
                </g>
                <g transform="matrix(32,0,0,32,146.864,0)">
                    <path d="M0.35,-0.545L0.35,-0.432L0.022,-0.432L0.022,-0.545L0.35,-0.545ZM0.097,-0.676L0.248,-0.676L0.248,-0.168C0.248,-0.154 0.25,-0.143 0.254,-0.135C0.259,-0.127 0.265,-0.122 0.272,-0.119C0.28,-0.116 0.289,-0.114 0.299,-0.114C0.306,-0.114 0.313,-0.115 0.32,-0.116C0.327,-0.118 0.333,-0.119 0.337,-0.119L0.36,-0.007C0.353,-0.004 0.342,-0.002 0.328,0.002C0.315,0.005 0.298,0.007 0.278,0.007C0.242,0.009 0.21,0.004 0.183,-0.007C0.155,-0.018 0.134,-0.036 0.119,-0.059C0.104,-0.082 0.096,-0.112 0.097,-0.148L0.097,-0.676Z" style="fill:rgb(153,153,153);fill-rule:nonzero;"/>
                </g>
                <g transform="matrix(32,0,0,32,166.716,0)">
                    <path d="M0.306,0.216C0.257,0.216 0.215,0.209 0.18,0.196C0.145,0.182 0.118,0.164 0.097,0.141C0.076,0.118 0.063,0.093 0.057,0.064L0.197,0.045C0.201,0.056 0.208,0.066 0.217,0.076C0.226,0.085 0.238,0.093 0.254,0.099C0.269,0.104 0.288,0.107 0.31,0.107C0.343,0.107 0.37,0.099 0.391,0.083C0.413,0.067 0.423,0.041 0.423,0.003L0.423,-0.097L0.417,-0.097C0.41,-0.081 0.4,-0.067 0.387,-0.054C0.374,-0.04 0.357,-0.029 0.336,-0.021C0.315,-0.012 0.29,-0.008 0.261,-0.008C0.22,-0.008 0.183,-0.017 0.15,-0.036C0.116,-0.055 0.09,-0.085 0.07,-0.124C0.05,-0.164 0.04,-0.213 0.04,-0.274C0.04,-0.336 0.05,-0.387 0.07,-0.429C0.09,-0.47 0.117,-0.501 0.151,-0.522C0.184,-0.542 0.221,-0.553 0.261,-0.553C0.292,-0.553 0.317,-0.547 0.338,-0.537C0.358,-0.527 0.375,-0.514 0.388,-0.499C0.4,-0.483 0.41,-0.469 0.417,-0.454L0.423,-0.454L0.423,-0.545L0.573,-0.545L0.573,0.005C0.573,0.052 0.561,0.091 0.539,0.122C0.516,0.153 0.485,0.177 0.444,0.192C0.404,0.208 0.358,0.216 0.306,0.216ZM0.309,-0.121C0.334,-0.121 0.354,-0.128 0.371,-0.14C0.388,-0.152 0.401,-0.169 0.41,-0.192C0.419,-0.215 0.424,-0.243 0.424,-0.275C0.424,-0.306 0.42,-0.334 0.411,-0.358C0.402,-0.381 0.388,-0.4 0.371,-0.413C0.354,-0.426 0.334,-0.432 0.309,-0.432C0.284,-0.432 0.263,-0.425 0.246,-0.412C0.229,-0.399 0.217,-0.38 0.208,-0.357C0.199,-0.333 0.195,-0.306 0.195,-0.275C0.195,-0.243 0.199,-0.216 0.208,-0.193C0.217,-0.17 0.23,-0.153 0.247,-0.14C0.264,-0.128 0.284,-0.121 0.309,-0.121Z" style="fill:rgb(153,153,153);fill-rule:nonzero;"/>
                </g>
                <g transform="matrix(32,0,0,32,186.977,0)">
                    <path d="M0.309,0.011C0.253,0.011 0.205,-0.001 0.164,-0.024C0.124,-0.046 0.093,-0.079 0.071,-0.121C0.049,-0.163 0.038,-0.213 0.038,-0.27C0.038,-0.326 0.049,-0.376 0.071,-0.418C0.093,-0.46 0.124,-0.493 0.163,-0.517C0.203,-0.541 0.249,-0.553 0.303,-0.553C0.339,-0.553 0.372,-0.547 0.404,-0.535C0.435,-0.524 0.462,-0.507 0.485,-0.484C0.509,-0.461 0.527,-0.432 0.54,-0.397C0.553,-0.363 0.559,-0.322 0.559,-0.276L0.559,-0.234L0.099,-0.234L0.099,-0.328L0.417,-0.328C0.417,-0.35 0.412,-0.369 0.403,-0.386C0.393,-0.402 0.38,-0.416 0.363,-0.425C0.347,-0.435 0.327,-0.44 0.305,-0.44C0.282,-0.44 0.262,-0.434 0.244,-0.424C0.227,-0.413 0.213,-0.399 0.203,-0.382C0.193,-0.364 0.188,-0.344 0.188,-0.323L0.188,-0.234C0.188,-0.207 0.193,-0.183 0.203,-0.164C0.213,-0.144 0.227,-0.129 0.246,-0.118C0.264,-0.108 0.286,-0.102 0.311,-0.102C0.328,-0.102 0.344,-0.105 0.358,-0.109C0.372,-0.114 0.384,-0.121 0.393,-0.131C0.403,-0.14 0.411,-0.152 0.416,-0.165L0.556,-0.156C0.549,-0.123 0.535,-0.093 0.513,-0.068C0.491,-0.043 0.463,-0.024 0.428,-0.01C0.394,0.004 0.354,0.011 0.309,0.011Z" style="fill:rgb(153,153,153);fill-rule:nonzero;"/>
                </g>
                <g transform="matrix(32,0,0,32,206.102,0)">
                    <path d="M0.212,-0.315L0.212,-0L0.06,-0L0.06,-0.545L0.205,-0.545L0.205,-0.449L0.211,-0.449C0.223,-0.481 0.243,-0.506 0.272,-0.525C0.3,-0.543 0.335,-0.553 0.375,-0.553C0.413,-0.553 0.446,-0.544 0.474,-0.528C0.502,-0.511 0.524,-0.488 0.54,-0.457C0.555,-0.426 0.563,-0.39 0.563,-0.347L0.563,-0L0.412,-0L0.412,-0.32C0.412,-0.354 0.404,-0.38 0.386,-0.399C0.369,-0.417 0.345,-0.427 0.315,-0.427C0.295,-0.427 0.277,-0.422 0.261,-0.414C0.246,-0.405 0.234,-0.392 0.225,-0.376C0.216,-0.359 0.212,-0.339 0.212,-0.315Z" style="fill:rgb(153,153,153);fill-rule:nonzero;"/>
                </g>
                <g transform="matrix(32,0,0,32,226,0)">
                    <path d="M0.309,0.011C0.253,0.011 0.205,-0.001 0.164,-0.024C0.124,-0.046 0.093,-0.079 0.071,-0.121C0.049,-0.163 0.038,-0.213 0.038,-0.27C0.038,-0.326 0.049,-0.376 0.071,-0.418C0.093,-0.46 0.124,-0.493 0.163,-0.517C0.203,-0.541 0.249,-0.553 0.303,-0.553C0.339,-0.553 0.372,-0.547 0.404,-0.535C0.435,-0.524 0.462,-0.507 0.485,-0.484C0.509,-0.461 0.527,-0.432 0.54,-0.397C0.553,-0.363 0.559,-0.322 0.559,-0.276L0.559,-0.234L0.099,-0.234L0.099,-0.328L0.417,-0.328C0.417,-0.35 0.412,-0.369 0.403,-0.386C0.393,-0.402 0.38,-0.416 0.363,-0.425C0.347,-0.435 0.327,-0.44 0.305,-0.44C0.282,-0.44 0.262,-0.434 0.244,-0.424C0.227,-0.413 0.213,-0.399 0.203,-0.382C0.193,-0.364 0.188,-0.344 0.188,-0.323L0.188,-0.234C0.188,-0.207 0.193,-0.183 0.203,-0.164C0.213,-0.144 0.227,-0.129 0.246,-0.118C0.264,-0.108 0.286,-0.102 0.311,-0.102C0.328,-0.102 0.344,-0.105 0.358,-0.109C0.372,-0.114 0.384,-0.121 0.393,-0.131C0.403,-0.14 0.411,-0.152 0.416,-0.165L0.556,-0.156C0.549,-0.123 0.535,-0.093 0.513,-0.068C0.491,-0.043 0.463,-0.024 0.428,-0.01C0.394,0.004 0.354,0.011 0.309,0.011Z" style="fill:rgb(153,153,153);fill-rule:nonzero;"/>
                </g>
                <g transform="matrix(32,0,0,32,245.125,0)">
                    <path d="M0.06,-0L0.06,-0.545L0.207,-0.545L0.207,-0.45L0.213,-0.45C0.223,-0.484 0.239,-0.51 0.263,-0.527C0.286,-0.545 0.313,-0.553 0.344,-0.553C0.351,-0.553 0.359,-0.553 0.368,-0.552C0.377,-0.551 0.385,-0.55 0.391,-0.548L0.391,-0.414C0.384,-0.416 0.374,-0.418 0.362,-0.419C0.349,-0.421 0.338,-0.422 0.327,-0.422C0.305,-0.422 0.285,-0.417 0.268,-0.407C0.251,-0.398 0.237,-0.385 0.227,-0.368C0.217,-0.35 0.212,-0.331 0.212,-0.309L0.212,-0L0.06,-0Z" style="fill:rgb(153,153,153);fill-rule:nonzero;"/>
                </g>
            </g>
            <g transform="matrix(1,0,0,1,918.716,634.2)">
                <g transform="matrix(32,0,0,32,0,0)">
                    <path d="M0.216,0.01C0.181,0.01 0.15,0.004 0.123,-0.008C0.096,-0.02 0.074,-0.038 0.058,-0.062C0.043,-0.086 0.035,-0.116 0.035,-0.152C0.035,-0.183 0.04,-0.208 0.051,-0.229C0.063,-0.249 0.078,-0.266 0.097,-0.278C0.116,-0.291 0.138,-0.3 0.162,-0.307C0.187,-0.313 0.213,-0.318 0.24,-0.32C0.271,-0.324 0.297,-0.327 0.316,-0.33C0.336,-0.333 0.35,-0.337 0.359,-0.343C0.367,-0.349 0.372,-0.358 0.372,-0.369L0.372,-0.371C0.372,-0.394 0.365,-0.411 0.351,-0.424C0.337,-0.436 0.317,-0.442 0.291,-0.442C0.264,-0.442 0.242,-0.436 0.226,-0.424C0.21,-0.412 0.199,-0.397 0.194,-0.379L0.054,-0.391C0.061,-0.424 0.075,-0.452 0.096,-0.477C0.117,-0.501 0.144,-0.52 0.177,-0.533C0.21,-0.546 0.248,-0.553 0.292,-0.553C0.322,-0.553 0.351,-0.549 0.379,-0.542C0.407,-0.535 0.431,-0.524 0.453,-0.509C0.475,-0.494 0.492,-0.475 0.504,-0.452C0.517,-0.428 0.523,-0.4 0.523,-0.368L0.523,-0L0.38,-0L0.38,-0.076L0.375,-0.076C0.367,-0.059 0.355,-0.044 0.34,-0.031C0.326,-0.018 0.308,-0.008 0.287,-0.001C0.267,0.007 0.243,0.01 0.216,0.01ZM0.259,-0.094C0.281,-0.094 0.301,-0.099 0.318,-0.107C0.335,-0.116 0.349,-0.128 0.358,-0.143C0.368,-0.159 0.373,-0.176 0.373,-0.195L0.373,-0.253C0.368,-0.25 0.362,-0.247 0.354,-0.244C0.345,-0.242 0.336,-0.24 0.326,-0.238C0.316,-0.236 0.306,-0.234 0.295,-0.232C0.285,-0.231 0.276,-0.23 0.268,-0.228C0.25,-0.226 0.234,-0.222 0.221,-0.216C0.208,-0.21 0.198,-0.203 0.19,-0.193C0.183,-0.183 0.179,-0.172 0.179,-0.157C0.179,-0.137 0.187,-0.121 0.202,-0.11C0.217,-0.099 0.236,-0.094 0.259,-0.094Z" style="fill:rgb(153,153,153);fill-rule:nonzero;"/>
                </g>
                <g transform="matrix(32,0,0,32,18.5682,0)">
                    <path d="M0.35,-0.545L0.35,-0.432L0.022,-0.432L0.022,-0.545L0.35,-0.545ZM0.097,-0.676L0.248,-0.676L0.248,-0.168C0.248,-0.154 0.25,-0.143 0.254,-0.135C0.259,-0.127 0.265,-0.122 0.272,-0.119C0.28,-0.116 0.289,-0.114 0.299,-0.114C0.306,-0.114 0.313,-0.115 0.32,-0.116C0.327,-0.118 0.333,-0.119 0.337,-0.119L0.36,-0.007C0.353,-0.004 0.342,-0.002 0.328,0.002C0.315,0.005 0.298,0.007 0.278,0.007C0.242,0.009 0.21,0.004 0.183,-0.007C0.155,-0.018 0.134,-0.036 0.119,-0.059C0.104,-0.082 0.096,-0.112 0.097,-0.148L0.097,-0.676Z" style="fill:rgb(153,153,153);fill-rule:nonzero;"/>
                </g>
                <g transform="matrix(32,0,0,32,31,0)">
                    <path d="M0.06,-0L0.06,-0.545L0.212,-0.545L0.212,-0L0.06,-0ZM0.136,-0.616C0.114,-0.616 0.095,-0.623 0.079,-0.638C0.063,-0.653 0.055,-0.671 0.055,-0.692C0.055,-0.713 0.063,-0.731 0.079,-0.746C0.095,-0.761 0.114,-0.769 0.136,-0.769C0.159,-0.769 0.178,-0.761 0.194,-0.746C0.21,-0.731 0.218,-0.713 0.218,-0.692C0.218,-0.671 0.21,-0.653 0.194,-0.638C0.178,-0.623 0.159,-0.616 0.136,-0.616Z" style="fill:rgb(153,153,153);fill-rule:nonzero;"/>
                </g>
                <g transform="matrix(32,0,0,32,39.7045,0)">
                    <path d="M0.307,0.011C0.252,0.011 0.204,-0.001 0.164,-0.025C0.124,-0.048 0.093,-0.081 0.071,-0.123C0.049,-0.166 0.038,-0.215 0.038,-0.271C0.038,-0.327 0.049,-0.376 0.071,-0.419C0.093,-0.461 0.124,-0.494 0.164,-0.517C0.204,-0.541 0.252,-0.553 0.307,-0.553C0.362,-0.553 0.41,-0.541 0.45,-0.517C0.49,-0.494 0.521,-0.461 0.543,-0.419C0.564,-0.376 0.575,-0.327 0.575,-0.271C0.575,-0.215 0.564,-0.166 0.543,-0.123C0.521,-0.081 0.49,-0.048 0.45,-0.025C0.41,-0.001 0.362,0.011 0.307,0.011ZM0.308,-0.107C0.333,-0.107 0.354,-0.114 0.37,-0.128C0.387,-0.142 0.4,-0.162 0.409,-0.187C0.417,-0.212 0.422,-0.24 0.422,-0.272C0.422,-0.303 0.417,-0.332 0.409,-0.357C0.4,-0.381 0.387,-0.401 0.37,-0.415C0.354,-0.43 0.333,-0.437 0.308,-0.437C0.282,-0.437 0.261,-0.43 0.244,-0.415C0.227,-0.401 0.214,-0.381 0.205,-0.357C0.196,-0.332 0.192,-0.303 0.192,-0.272C0.192,-0.24 0.196,-0.212 0.205,-0.187C0.214,-0.162 0.227,-0.142 0.244,-0.128C0.261,-0.114 0.282,-0.107 0.308,-0.107Z" style="fill:rgb(153,153,153);fill-rule:nonzero;"/>
                </g>
                <g transform="matrix(32,0,0,32,59.3409,0)">
                    <path d="M0.212,-0.315L0.212,-0L0.06,-0L0.06,-0.545L0.205,-0.545L0.205,-0.449L0.211,-0.449C0.223,-0.481 0.243,-0.506 0.272,-0.525C0.3,-0.543 0.335,-0.553 0.375,-0.553C0.413,-0.553 0.446,-0.544 0.474,-0.528C0.502,-0.511 0.524,-0.488 0.54,-0.457C0.555,-0.426 0.563,-0.39 0.563,-0.347L0.563,-0L0.412,-0L0.412,-0.32C0.412,-0.354 0.404,-0.38 0.386,-0.399C0.369,-0.417 0.345,-0.427 0.315,-0.427C0.295,-0.427 0.277,-0.422 0.261,-0.414C0.246,-0.405 0.234,-0.392 0.225,-0.376C0.216,-0.359 0.212,-0.339 0.212,-0.315Z" style="fill:rgb(153,153,153);fill-rule:nonzero;"/>
                </g>
            </g>
        </g>
    </g>
    <defs>
        <linearGradient id="_Linear1" x1="0" y1="0" x2="1" y2="0" gradientUnits="userSpaceOnUse" gradientTransform="matrix(687,688,-688,687,0,0)"><stop offset="0" style="stop-color:rgb(204,204,204);stop-opacity:1"/><stop offset="1" style="stop-color:rgb(153,153,153);stop-opacity:1"/></linearGradient>
        <linearGradient id="_Linear2" x1="0" y1="0" x2="1" y2="0" gradientUnits="userSpaceOnUse" gradientTransform="matrix(687,688,-688,687,0,0)"><stop offset="0" style="stop-color:rgb(85,85,85);stop-opacity:1"/><stop offset="1" style="stop-color:rgb(136,136,136);stop-opacity:1"/></linearGradient>
        <linearGradient id="_Linear3" x1="0" y1="0" x2="1" y2="0" gradientUnits="userSpaceOnUse" gradientTransform="matrix(343.5,343.5,-343.5,343.5,343.5,344.5)"><stop offset="0" style="stop-color:rgb(153,245,255);stop-opacity:1"/><stop offset="1" style="stop-color:rgb(51,127,255);stop-opacity:1"/></linearGradient>
        <linearGradient id="_Linear4" x1="0" y1="0" x2="1" y2="0" gradientUnits="userSpaceOnUse" gradientTransform="matrix(343.5,343.5,-343.5,343.5,343.5,344.5)"><stop offset="0" style="stop-color:rgb(0,151,168);stop-opacity:1"/><stop offset="1" style="stop-color:rgb(15,105,255);stop-opacity:1"/></linearGradient>
        <linearGradient id="_Linear5" x1="0" y1="0" x2="1" y2="0" gradientUnits="userSpaceOnUse" gradientTransform="matrix(464.558,194,-194,464.558,4.841,-190.077)"><stop offset="0" style="stop-color:rgb(0,229,255);stop-opacity:1"/><stop offset="1" style="stop-color:rgb(41,121,255);stop-opacity:1"/></linearGradient>
        <linearGradient id="_Linear6" x1="0" y1="0" x2="1" y2="0" gradientUnits="userSpaceOnUse" gradientTransform="matrix(464.558,194,-194,464.558,4.841,-190.077)"><stop offset="0" style="stop-color:rgb(0,229,255);stop-opacity:1"/><stop offset="1" style="stop-color:rgb(41,121,255);stop-opacity:1"/></linearGradient>
        <linearGradient id="_Linear7" x1="0" y1="0" x2="1" y2="0" gradientUnits="userSpaceOnUse" gradientTransform="matrix(464.558,194,-194,464.558,4.841,-190.077)"><stop offset="0" style="stop-color:rgb(0,229,255);stop-opacity:1"/><stop offset="1" style="stop-color:rgb(41,121,255);stop-opacity:1"/></linearGradient>
        <linearGradient id="_Linear8" x1="0" y1="0" x2="1" y2="0" gradientUnits="userSpaceOnUse" gradientTransform="matrix(464.558,194,-194,464.558,4.841,-190.077)"><stop offset="0" style="stop-color:rgb(0,229,255);stop-opacity:1"/><stop offset="1" style="stop-color:rgb(41,121,255);stop-opacity:1"/></linearGradient>
        <linearGradient id="_Linear9" x1="0" y1="0" x2="1" y2="0" gradientUnits="userSpaceOnUse" gradientTransform="matrix(464.558,194,-194,464.558,4.841,-190.077)"><stop offset="0" style="stop-color:rgb(0,229,255);stop-opacity:1"/><stop offset="1" style="stop-color:rgb(41,121,255);stop-opacity:1"/></linearGradient>
        <linearGradient id="_Linear10" x1="0" y1="0" x2="1" y2="0" gradientUnits="userSpaceOnUse" gradientTransform="matrix(464.558,194,-194,464.558,-279.682,-190.077)"><stop offset="0" style="stop-color:rgb(0,229,255);stop-opacity:1"/><stop offset="1" style="stop-color:rgb(41,121,255);stop-opacity:1"/></linearGradient>
        <linearGradient id="_Linear11" x1="0" y1="0" x2="1" y2="0" gradientUnits="userSpaceOnUse" gradientTransform="matrix(464.558,194,-194,464.558,-279.682,-190.077)"><stop offset="0" style="stop-color:rgb(0,229,255);stop-opacity:1"/><stop offset="1" style="stop-color:rgb(41,121,255);stop-opacity:1"/></linearGradient>
        <linearGradient id="_Linear12" x1="0" y1="0" x2="1" y2="0" gradientUnits="userSpaceOnUse" gradientTransform="matrix(464.558,194,-194,464.558,-279.682,-190.077)"><stop offset="0" style="stop-color:rgb(0,229,255);stop-opacity:1"/><stop offset="1" style="stop-color:rgb(41,121,255);stop-opacity:1"/></linearGradient>
    </defs>
</svg>
