<?xml version="1.0" encoding="UTF-8" standalone="no"?><!DOCTYPE svg PUBLIC "-//W3C//DTD SVG 1.1//EN" "http://www.w3.org/Graphics/SVG/1.1/DTD/svg11.dtd"><svg width="100%" height="100%" viewBox="0 0 2813 692" version="1.1" xmlns="http://www.w3.org/2000/svg" xmlns:xlink="http://www.w3.org/1999/xlink" xml:space="preserve" xmlns:serif="http://www.serif.com/" style="fill-rule:evenodd;clip-rule:evenodd;stroke-linejoin:round;stroke-miterlimit:2;"><g><g><g><path d="M1162.35,361.163c0,29.487 -4.683,54.887 -14.046,76.204c-9.362,21.312 -22.5,37.979 -39.412,49.995l54.508,42.767l-27.463,25.367l-64.362,-51.15c-10.063,2.512 -20.683,3.771 -31.862,3.771c-24.038,-0 -45.355,-5.905 -63.942,-17.713c-18.588,-11.808 -33.017,-28.65 -43.288,-50.525c-10.275,-21.871 -15.55,-47.2 -15.829,-75.992l0,-22.012c0,-29.35 5.1,-55.275 15.304,-77.775c10.205,-22.5 24.634,-39.725 43.292,-51.675c18.654,-11.95 40.004,-17.925 64.042,-17.925c24.6,-0 46.225,5.942 64.883,17.821c18.658,11.879 33.017,28.962 43.079,51.254c10.063,22.292 15.096,48.321 15.096,78.092l0,19.495Zm-40.25,-19.708c0,-35.916 -7.162,-63.625 -21.487,-83.121c-14.325,-19.495 -34.767,-29.241 -61.321,-29.241c-25.296,-0 -45.246,9.675 -59.85,29.033c-14.604,19.358 -22.117,46.225 -22.538,80.604l0,22.434c0,34.937 7.304,62.47 21.909,82.595c14.604,20.125 34.904,30.188 60.9,30.188c25.995,-0 46.12,-9.467 60.375,-28.404c14.254,-18.938 21.591,-46.088 22.012,-81.446l0,-22.642Z" style="fill:#595959;fill-rule:nonzero;"/><path d="M1358.36,481.496c-15.096,17.746 -37.246,26.621 -66.459,26.621c-24.175,-0 -42.591,-7.021 -55.237,-21.067c-12.65,-14.046 -19.042,-34.838 -19.184,-62.367l0,-147.587l38.784,-0l-0,146.537c-0,34.379 13.975,51.571 41.929,51.571c29.629,0 49.333,-11.042 59.116,-33.121l0,-164.987l38.784,-0l-0,226.829l-36.896,-0l-0.838,-22.429Z" style="fill:#595959;fill-rule:nonzero;"/><path d="M1549.13,508.117c-30.746,-0 -55.762,-10.096 -75.05,-30.292c-19.283,-20.196 -28.929,-47.204 -28.929,-81.025l0,-7.129c0,-22.5 4.3,-42.592 12.892,-60.271c8.595,-17.679 20.616,-31.513 36.058,-41.508c15.446,-9.992 32.179,-14.988 50.208,-14.988c29.492,0 52.409,9.713 68.763,29.142c16.35,19.425 24.525,47.237 24.525,83.433l-0,16.142l-153.663,-0c0.559,22.362 7.092,40.425 19.6,54.191c12.509,13.767 28.409,20.651 47.696,20.651c13.696,-0 25.296,-2.796 34.796,-8.388c9.504,-5.588 17.821,-12.996 24.95,-22.221l23.688,18.45c-19.009,29.209 -47.517,43.813 -85.534,43.813Zm-4.821,-203.346c-15.65,-0 -28.787,5.691 -39.412,17.083c-10.621,11.392 -17.188,27.358 -19.704,47.904l113.625,0l-0,-2.937c-1.121,-19.704 -6.43,-34.975 -15.934,-45.804c-9.504,-10.834 -22.362,-16.246 -38.575,-16.246Z" style="fill:#595959;fill-rule:nonzero;"/><path d="M1814.53,443.758c0,-10.479 -3.95,-18.62 -11.846,-24.421c-7.895,-5.799 -21.662,-10.795 -41.3,-14.991c-19.633,-4.192 -35.216,-9.221 -46.745,-15.092c-11.534,-5.871 -20.059,-12.858 -25.58,-20.966c-5.52,-8.105 -8.279,-17.746 -8.279,-28.93c0,-18.587 7.863,-34.308 23.584,-47.166c15.725,-12.859 35.812,-19.288 60.27,-19.288c25.717,0 46.575,6.638 62.58,19.917c16,13.275 24,30.258 24,50.942l-38.992,-0c-0,-10.621 -4.508,-19.775 -13.521,-27.463c-9.012,-7.687 -20.371,-11.529 -34.067,-11.529c-14.116,-0 -25.154,3.075 -33.12,9.221c-7.967,6.15 -11.95,14.187 -11.95,24.108c-0,9.367 3.704,16.425 11.108,21.175c7.408,4.75 20.792,9.296 40.146,13.625c19.358,4.333 35.046,9.504 47.066,15.517c12.017,6.008 20.93,13.241 26.73,21.695c5.8,8.455 8.7,18.763 8.7,30.921c-0,20.267 -8.109,36.513 -24.321,48.742c-16.213,12.229 -37.246,18.342 -63.1,18.342c-18.167,-0 -34.242,-3.213 -48.217,-9.642c-13.975,-6.429 -24.912,-15.408 -32.808,-26.938c-7.896,-11.533 -11.846,-24.004 -11.846,-37.42l38.783,-0c0.7,12.995 5.904,23.304 15.621,30.921c9.713,7.616 22.533,11.425 38.467,11.425c14.675,-0 26.45,-2.971 35.325,-8.909c8.875,-5.942 13.312,-13.871 13.312,-23.796Z" style="fill:#595959;fill-rule:nonzero;"/><path d="M1956.46,222.171l0,54.925l42.346,-0l0,29.979l-42.346,0l0,140.846c0,9.092 1.884,15.917 5.659,20.462c3.775,4.546 10.204,6.821 19.287,6.821c4.471,0 10.621,-0.837 18.446,-2.516l0,31.262c-10.2,2.779 -20.125,4.167 -29.767,4.167c-17.329,-0 -30.4,-5.242 -39.204,-15.721c-8.804,-10.483 -13.204,-25.367 -13.204,-44.654l0,-140.667l-41.3,0l0,-29.979l41.3,-0l0,-54.925l38.783,-0Z" style="fill:#595959;fill-rule:nonzero;"/><path d="M2090.43,384.433l0,119.492l-40.25,0l0,-305.233l112.575,-0c33.404,-0 59.571,8.525 78.508,25.575c18.938,17.054 28.409,39.625 28.409,67.716c-0,29.625 -9.263,52.442 -27.779,68.446c-18.517,16 -45.038,24.004 -79.559,24.004l-71.904,0Zm0,-32.916l72.325,-0c21.521,-0 38.013,-5.075 49.475,-15.225c11.459,-10.15 17.192,-24.813 17.192,-43.996c-0,-18.2 -5.733,-32.758 -17.192,-43.679c-11.462,-10.921 -27.183,-16.592 -47.171,-17.013l-74.629,0l0,119.913Z" style="fill:#0094f9;fill-rule:nonzero;"/><path d="M2321.03,503.925l0,-305.233l86.163,-0c26.554,-0 50.033,5.87 70.437,17.612c20.404,11.738 36.163,28.438 47.275,50.1c11.109,21.663 16.733,46.542 16.875,74.633l0,19.496c0,28.792 -5.554,54.017 -16.667,75.68c-11.112,21.662 -26.975,38.291 -47.587,49.891c-20.617,11.6 -44.617,17.542 -72.013,17.821l-84.483,0Zm40.25,-272.321l0,239.409l42.35,-0c31.025,-0 55.167,-9.655 72.429,-28.955c17.259,-19.304 25.888,-46.791 25.888,-82.462l-0,-17.834c-0,-34.691 -8.138,-61.649 -24.421,-80.887c-16.283,-19.233 -39.379,-28.987 -69.287,-29.271l-46.959,0Z" style="fill:#0094f9;fill-rule:nonzero;"/><path d="M2770.91,369.129l-128.088,0l0,134.796l-40.25,0l0,-305.233l189.092,-0l-0,32.912l-148.842,0l0,104.613l128.088,-0l-0,32.912Z" style="fill:#0094f9;fill-rule:nonzero;"/></g></g></g><g><path d="M383.533,521.092c-93.804,39.879 -206.529,21.591 -282.971,-54.85c-100.483,-100.484 -100.483,-263.638 0.001,-364.117l1.141,-1.133l122.029,122.033c-31.575,30.854 -51.175,73.825 -51.175,121.317c0,93.825 76.492,170 170.709,170c12.179,-0 24.058,-1.275 35.516,-3.692c1.538,3.508 3.121,6.992 4.75,10.442Zm265.65,-38.579c27.5,-88.242 6.334,-188.442 -63.508,-258.284c-99.817,-99.816 -261.646,-100.216 -361.946,-1.208l-122.837,-122.842c62.087,-61.9 147.704,-100.179 242.187,-100.179c189.35,0 343.079,153.729 343.079,343.079c0,51.784 -11.495,100.9 -32.075,144.942c-1.62,-1.858 -3.258,-3.696 -4.9,-5.508Zm-139.416,-100.517l0.079,-0.358l-0.058,0.27l-0.021,0.088Zm0.25,-1.125l-0.071,0.316l0.129,-0.575l-0.058,0.259Zm0.229,-1.038l-0.071,0.321l0.121,-0.575l-0.05,0.254Zm0.217,-1.041l-0.067,0.325l0.117,-0.571l-0.05,0.246Zm0.212,-1.046l-0.067,0.333l0.113,-0.567l-0.046,0.234Zm0.208,-1.046l-0.066,0.337l0.108,-0.562l-0.042,0.225Zm0.2,-1.05l-0.066,0.346l0.104,-0.563l-0.038,0.217Zm0.192,-1.05l-0.062,0.35l0.1,-0.558l-0.038,0.208Zm0.188,-1.054l-0.063,0.354l0.096,-0.554l-0.033,0.2Zm0.179,-1.054l-0.063,0.358l0.096,-0.55l-0.033,0.192Zm0.175,-1.059l-0.063,0.367l0.092,-0.55l-0.029,0.183Zm0.166,-1.058l-0.058,0.371l0.083,-0.546l-0.025,0.175Zm0.163,-1.063l-0.058,0.375l0.079,-0.541l-0.021,0.166Zm0.154,-1.066l-0.058,0.383l0.079,-0.542l-0.021,0.159Zm0.146,-1.063l-0.054,0.388l0.075,-0.542l-0.021,0.154Zm0.142,-1.071l-0.055,0.396l0.071,-0.541l-0.016,0.145Zm0.133,-1.07l-0.05,0.4l0.067,-0.538l-0.017,0.138Zm0.129,-1.071l-0.05,0.404l0.063,-0.533l-0.013,0.129Zm0.121,-1.075l-0.046,0.412l0.058,-0.533l-0.012,0.121Zm0.112,-1.075l-0.045,0.416l0.058,-0.533l-0.013,0.117Zm0.109,-1.079l-0.042,0.421l0.05,-0.53l-0.008,0.109Zm0.1,-1.079l-0.042,0.425l0.05,-0.53l-0.008,0.105Zm0.1,-1.18l-0.046,0.529l0.046,-0.529Zm0.079,-0.987l-0.033,0.437l0.041,-0.525l-0.008,0.088Zm0.079,-1.088l-0.029,0.442l0.037,-0.521l-0.008,0.079Zm0.075,-1.087l-0.029,0.446l0.033,-0.517l-0.004,0.071Zm0.067,-1.092l-0.029,0.454l0.033,-0.516l-0.004,0.062Zm0.058,-1.092l-0.025,0.459l0.029,-0.513l-0.004,0.054Zm0.054,-1.091l-0.021,0.458l0.021,-0.508l0,0.05Zm0.046,-1.096l-0.021,0.462l0.021,-0.504l0,0.042Zm0.038,-1.096l-0.017,0.458l0.017,-0.495l-0,0.037Zm0.033,-1.1l-0.013,0.458l0.013,-0.487l-0,0.029Zm0.025,-1.1l-0.013,0.446l0.013,-0.467l-0,0.021Zm0.017,-1.104l-0.009,0.425l0.009,-0.438l-0,0.013Zm-232.559,-160.679c-10.387,4.025 -20.279,9.037 -29.566,14.921c-9.284,5.879 -17.963,12.629 -25.917,20.133c15.908,-15.008 34.712,-27 55.483,-35.054Zm111.013,-4.363c1.625,0.488 3.246,0.996 4.85,1.534c1.608,0.533 3.2,1.087 4.787,1.666c-3.171,-1.158 -6.383,-2.225 -9.637,-3.2Zm-7.038,-1.941c0.529,0.133 1.054,0.27 1.584,0.408c0.525,0.137 1.054,0.279 1.583,0.425c-1.05,-0.288 -2.108,-0.567 -3.167,-0.833Zm-22.191,-4.075c3.608,0.416 7.179,0.95 10.712,1.587c3.533,0.638 7.029,1.388 10.488,2.238c-6.913,-1.705 -13.988,-2.988 -21.2,-3.825Zm-16.425,-1.113c-1.163,-0.025 -2.33,-0.033 -3.496,-0.033c1.166,-0 2.333,0.008 3.496,0.033l1.162,0.029l1.054,0.029l0.367,0.017l0.896,0.029c0.721,0.029 1.437,0.063 2.158,0.1l0.15,0.009l0.346,0.02l0.458,0.025l0.346,0.021l0.575,0.038l0.288,0.016l0.125,0.009l0.162,0.008l1.146,0.083l1.146,0.088l0.166,0.012l0.121,0.009l0.288,0.025l0.571,0.05l0.341,0.029l0.229,0.021l0.225,0.021l0.346,0.029l0.567,0.058l0.287,0.025l0.121,0.013c0.434,0.041 0.867,0.087 1.3,0.133l-1.3,-0.133l-0.408,-0.038l-0.913,-0.087l-0.454,-0.042l-0.912,-0.079l-0.409,-0.034l-1.312,-0.1l-1.308,-0.091l-0.413,-0.025l-0.921,-0.059l-0.458,-0.025l-0.496,-0.029l-3.054,-0.129l-1.421,-0.046l-1.162,-0.029Z" style="fill:#cbcbcb;"/><path d="M485.271,655.354c-43.325,19.779 -91.479,30.804 -142.192,30.804c-189.35,0 -343.079,-153.729 -343.079,-343.079c0,-94.237 38.079,-179.654 99.679,-241.687l0.808,0.808c-100.408,100.471 -100.387,263.579 0.075,364.042c76.45,76.45 189.18,94.462 282.971,54.587c24.342,51.55 59.175,97.488 101.738,134.525Zm24.496,-273.358c2.754,-12.113 4.208,-24.717 4.208,-37.654c0,-93.825 -76.492,-169.996 -170.708,-169.996c-47.146,-0 -89.854,19.071 -120.754,49.883c100.216,-100.217 262.945,-100.217 363.162,0c69.842,69.842 91.008,170.042 63.508,258.279c-38.583,-42.596 -86.025,-77.066 -139.416,-100.512Z" style="fill:#929292;"/><path d="M411.696,413.038c154.117,-0.246 273.883,122.591 274.458,272.687l0.004,1.775c-151.479,0 -274.462,-122.983 -274.462,-274.463Z" style="fill:#8ecbfe;"/><path d="M426.179,500.95c169.454,-77.662 259.988,90.258 259.988,184.938c-0,0.537 -0,1.075 -0.009,1.612c-115.104,-0.65 -222.762,-74.371 -259.979,-186.55Z" style="fill:#0094f9;"/></g></svg>