<?xml version="1.0" encoding="UTF-8" standalone="no"?>
<!DOCTYPE svg PUBLIC "-//W3C//DTD SVG 1.1//EN" "http://www.w3.org/Graphics/SVG/1.1/DTD/svg11.dtd">
<svg width="100%" height="100%" viewBox="0 0 655 204" version="1.1" xmlns="http://www.w3.org/2000/svg" xmlns:xlink="http://www.w3.org/1999/xlink" xml:space="preserve" xmlns:serif="http://www.serif.com/" style="fill-rule:evenodd;clip-rule:evenodd;stroke-linejoin:round;stroke-miterlimit:2;">
    <g transform="matrix(1,0,0,1,-231.592,-325.446)">
        <g transform="matrix(0.219794,0,0,0.219794,231.592,325.446)">
            <path d="M383.533,521.092C289.729,560.971 177.004,542.683 100.562,466.242C0.079,365.758 0.079,202.604 100.563,102.125L101.704,100.992L223.733,223.025C192.158,253.879 172.558,296.85 172.558,344.342C172.558,438.167 249.05,514.342 343.267,514.342C355.446,514.342 367.325,513.067 378.783,510.65C380.321,514.158 381.904,517.642 383.533,521.092ZM649.183,482.513C676.683,394.271 655.517,294.071 585.675,224.229C485.858,124.413 324.029,124.013 223.729,223.021L100.892,100.179C162.979,38.279 248.596,-0 343.079,-0C532.429,-0 686.158,153.729 686.158,343.079C686.158,394.863 674.663,443.979 654.083,488.021C652.463,486.163 650.825,484.325 649.183,482.513ZM509.767,381.996L509.846,381.638L509.788,381.908L509.767,381.996ZM510.017,380.871L509.946,381.187L510.075,380.612L510.017,380.871ZM510.246,379.833L510.175,380.154L510.296,379.579L510.246,379.833ZM510.463,378.792L510.396,379.117L510.513,378.546L510.463,378.792ZM510.675,377.746L510.608,378.079L510.721,377.512L510.675,377.746ZM510.883,376.7L510.817,377.037L510.925,376.475L510.883,376.7ZM511.083,375.65L511.017,375.996L511.121,375.433L511.083,375.65ZM511.275,374.6L511.213,374.95L511.313,374.392L511.275,374.6ZM511.463,373.546L511.4,373.9L511.496,373.346L511.463,373.546ZM511.642,372.492L511.579,372.85L511.675,372.3L511.642,372.492ZM511.817,371.433L511.754,371.8L511.846,371.25L511.817,371.433ZM511.983,370.375L511.925,370.746L512.008,370.2L511.983,370.375ZM512.146,369.312L512.088,369.687L512.167,369.146L512.146,369.312ZM512.3,368.246L512.242,368.629L512.321,368.087L512.3,368.246ZM512.446,367.183L512.392,367.571L512.467,367.029L512.446,367.183ZM512.588,366.112L512.533,366.508L512.604,365.967L512.588,366.112ZM512.721,365.042L512.671,365.442L512.738,364.904L512.721,365.042ZM512.85,363.971L512.8,364.375L512.863,363.842L512.85,363.971ZM512.971,362.896L512.925,363.308L512.983,362.775L512.971,362.896ZM513.083,361.821L513.038,362.237L513.096,361.704L513.083,361.821ZM513.192,360.742L513.15,361.163L513.2,360.633L513.192,360.742ZM513.292,359.663L513.25,360.088L513.3,359.558L513.292,359.663ZM513.392,358.483L513.346,359.012L513.392,358.483ZM513.471,357.496L513.438,357.933L513.479,357.408L513.471,357.496ZM513.55,356.408L513.521,356.85L513.558,356.329L513.55,356.408ZM513.625,355.321L513.596,355.767L513.629,355.25L513.625,355.321ZM513.692,354.229L513.663,354.683L513.696,354.167L513.692,354.229ZM513.75,353.137L513.725,353.596L513.754,353.083L513.75,353.137ZM513.804,352.046L513.783,352.504L513.804,351.996L513.804,352.046ZM513.85,350.95L513.829,351.412L513.85,350.908L513.85,350.95ZM513.888,349.854L513.871,350.312L513.888,349.817L513.888,349.854ZM513.921,348.754L513.908,349.212L513.921,348.725L513.921,348.754ZM513.946,347.654L513.933,348.1L513.946,347.633L513.946,347.654ZM513.963,346.55L513.954,346.975L513.963,346.537L513.963,346.55ZM281.404,185.871C271.017,189.896 261.125,194.908 251.838,200.792C242.554,206.671 233.875,213.421 225.921,220.925C241.829,205.917 260.633,193.925 281.404,185.871ZM392.417,181.508C394.042,181.996 395.663,182.504 397.267,183.042C398.875,183.575 400.467,184.129 402.054,184.708C398.883,183.55 395.671,182.483 392.417,181.508ZM385.379,179.567C385.908,179.7 386.433,179.837 386.963,179.975C387.488,180.112 388.017,180.254 388.546,180.4C387.496,180.112 386.438,179.833 385.379,179.567ZM363.188,175.492C366.796,175.908 370.367,176.442 373.9,177.079C377.433,177.717 380.929,178.467 384.388,179.317C377.475,177.612 370.4,176.329 363.188,175.492ZM346.763,174.379C345.6,174.354 344.433,174.346 343.267,174.346C344.433,174.346 345.6,174.354 346.763,174.379L347.925,174.408L348.979,174.437L349.346,174.454L350.242,174.483C350.963,174.512 351.679,174.546 352.4,174.583L352.55,174.592L352.896,174.612L353.354,174.637L353.7,174.658L354.275,174.696L354.563,174.712L354.688,174.721L354.85,174.729L355.996,174.812L357.142,174.9L357.308,174.912L357.429,174.921L357.717,174.946L358.288,174.996L358.629,175.025L358.858,175.046L359.083,175.067L359.429,175.096L359.996,175.154L360.283,175.179L360.404,175.192C360.838,175.233 361.271,175.279 361.704,175.325L360.404,175.192L359.996,175.154L359.083,175.067L358.629,175.025L357.717,174.946L357.308,174.912L355.996,174.812L354.688,174.721L354.275,174.696L353.354,174.637L352.896,174.612L352.4,174.583L349.346,174.454L347.925,174.408L346.763,174.379Z" style="fill:url(#_Linear1);"/>
        </g>
        <g transform="matrix(0.219794,0,0,0.219794,231.592,325.446)">
            <path d="M485.271,655.354C441.946,675.133 393.792,686.158 343.079,686.158C153.729,686.158 0,532.429 0,343.079C0,248.842 38.079,163.425 99.679,101.392L100.487,102.2C0.079,202.671 0.1,365.779 100.562,466.242C177.012,542.692 289.742,560.704 383.533,520.829C407.875,572.379 442.708,618.317 485.271,655.354ZM509.767,381.996C512.521,369.883 513.975,357.279 513.975,344.342C513.975,250.517 437.483,174.346 343.267,174.346C296.121,174.346 253.413,193.417 222.513,224.229C322.729,124.012 485.458,124.012 585.675,224.229C655.517,294.071 676.683,394.271 649.183,482.508C610.6,439.912 563.158,405.442 509.767,381.996Z" style="fill:url(#_Linear2);"/>
        </g>
        <g transform="matrix(0.219794,0,0,0.219794,231.592,325.446)">
            <path d="M411.696,413.038C565.813,412.792 685.579,535.629 686.154,685.725L686.158,687.5C534.679,687.5 411.696,564.517 411.696,413.037L411.696,413.038Z" style="fill:url(#_Linear3);"/>
        </g>
        <g transform="matrix(0.219794,0,0,0.219794,231.592,325.446)">
            <path d="M426.179,500.95C595.633,423.288 686.167,591.208 686.167,685.888C686.167,686.425 686.167,686.963 686.158,687.5C571.054,686.85 463.396,613.129 426.179,500.95Z" style="fill:url(#_Linear4);"/>
        </g>
    </g>
    <g transform="matrix(1,0,0,1,-353.399,-292.923)">
        <text x="539px" y="401px" style="font-family:'Inter-Bold', 'Inter';font-weight:700;font-size:96px;fill:url(#_Linear5);">Quest<tspan x="823.523px " y="401px ">P</tspan>DF</text>
    </g>
    <g transform="matrix(1,0,0,1,-471.842,-437.772)">
        <text x="661px" y="599px" style="font-family:'Inter-Bold', 'Inter';font-weight:700;font-size:32px;fill:rgb(153,153,153);">Modern .NET libr<tspan x="921.545px 940.114px 953.739px " y="599px 599px 599px ">ary</tspan> f<tspan x="991.636px " y="599px ">o</tspan>r</text>
        <text x="661px" y="634.2px" style="font-family:'Inter-Bold', 'Inter';font-weight:700;font-size:32px;fill:rgb(153,153,153);">document gener<tspan x="918.716px " y="634.2px ">a</tspan>tion</text>
    </g>
    <defs>
        <linearGradient id="_Linear1" x1="0" y1="0" x2="1" y2="0" gradientUnits="userSpaceOnUse" gradientTransform="matrix(687,688,-688,687,0,0)"><stop offset="0" style="stop-color:rgb(204,204,204);stop-opacity:1"/><stop offset="1" style="stop-color:rgb(153,153,153);stop-opacity:1"/></linearGradient>
        <linearGradient id="_Linear2" x1="0" y1="0" x2="1" y2="0" gradientUnits="userSpaceOnUse" gradientTransform="matrix(687,688,-688,687,0,0)"><stop offset="0" style="stop-color:rgb(85,85,85);stop-opacity:1"/><stop offset="1" style="stop-color:rgb(136,136,136);stop-opacity:1"/></linearGradient>
        <linearGradient id="_Linear3" x1="0" y1="0" x2="1" y2="0" gradientUnits="userSpaceOnUse" gradientTransform="matrix(343.5,343.5,-343.5,343.5,343.5,344.5)"><stop offset="0" style="stop-color:rgb(153,245,255);stop-opacity:1"/><stop offset="1" style="stop-color:rgb(51,127,255);stop-opacity:1"/></linearGradient>
        <linearGradient id="_Linear4" x1="0" y1="0" x2="1" y2="0" gradientUnits="userSpaceOnUse" gradientTransform="matrix(343.5,343.5,-343.5,343.5,343.5,344.5)"><stop offset="0" style="stop-color:rgb(0,151,168);stop-opacity:1"/><stop offset="1" style="stop-color:rgb(15,105,255);stop-opacity:1"/></linearGradient>
        <linearGradient id="_Linear5" x1="0" y1="0" x2="1" y2="0" gradientUnits="userSpaceOnUse" gradientTransform="matrix(395.966,204,-204,395.966,543.034,218.898)"><stop offset="0" style="stop-color:rgb(0,229,255);stop-opacity:1"/><stop offset="1" style="stop-color:rgb(41,121,255);stop-opacity:1"/></linearGradient>
    </defs>
</svg>
